<?xml version="1.0" standalone="no"?>
<!DOCTYPE svg PUBLIC "-//W3C//DTD SVG 20010904//EN"
 "http://www.w3.org/TR/2001/REC-SVG-20010904/DTD/svg10.dtd">
<svg version="1.0" xmlns="http://www.w3.org/2000/svg"
 width="260.000000pt" height="260.000000pt" viewBox="0 0 260.000000 260.000000"
 preserveAspectRatio="xMidYMid meet">
<metadata>
Created by potrace 1.14, written by Peter Selinger 2001-2017
</metadata>
<g transform="translate(0.000000,260.000000) scale(0.100000,-0.100000)"
fill="#000000" stroke="none">
<path d="M1075 2574 c-289 -52 -558 -203 -748 -422 -154 -177 -262 -402 -301
-627 -21 -117 -21 -333 0 -450 79 -460 417 -852 861 -1001 258 -87 568 -87
826 0 444 149 782 541 861 1001 20 116 21 334 1 448 -94 537 -518 958 -1059
1052 -110 19 -332 18 -441 -1z m470 -49 c243 -51 440 -154 618 -324 439 -419
512 -1083 176 -1596 -66 -99 -230 -265 -329 -332 -397 -266 -863 -296 -1281
-82 -343 176 -584 498 -660 884 -18 92 -18 358 0 450 94 477 447 860 902 981
177 46 408 54 574 19z"/>
<path d="M1175 2340 c-27 -5 -79 -18 -115 -29 -36 -10 -92 -25 -125 -31 -125
-24 -223 -88 -267 -174 -16 -30 -19 -53 -16 -98 5 -72 29 -107 87 -129 42 -15
43 -17 76 -115 18 -54 49 -137 69 -182 20 -46 36 -88 36 -93 0 -16 -40 -9 -62
11 -24 22 -68 26 -98 10 -21 -11 -144 -21 -282 -24 -77 -1 -89 -4 -113 -26
-35 -31 -68 -104 -60 -130 12 -39 70 -34 109 9 29 31 36 26 36 -27 0 -77 39
-112 90 -80 28 18 35 4 22 -41 -7 -21 -12 -48 -12 -59 0 -26 35 -51 62 -44 21
5 78 76 78 98 0 7 21 34 48 60 37 38 53 47 75 45 32 -3 64 21 78 57 8 20 15
23 51 20 l41 -3 48 -120 c71 -175 71 -169 6 -236 -32 -32 -58 -69 -62 -87 -5
-23 -16 -36 -43 -49 -26 -13 -40 -28 -48 -51 -7 -22 -22 -39 -43 -50 -18 -8
-35 -21 -38 -29 -4 -9 -25 -13 -70 -13 -37 0 -76 -6 -92 -15 -41 -21 -79 -69
-92 -118 -7 -23 -16 -46 -21 -51 -4 -6 -8 -25 -8 -43 0 -28 6 -35 41 -53 60
-31 191 -46 275 -32 87 14 182 61 228 112 l36 40 -5 84 c-3 66 -1 87 10 96 23
19 18 61 -11 92 -26 26 -26 28 -10 52 19 30 41 43 81 47 26 4 31 0 42 -31 6
-19 12 -54 12 -77 1 -70 21 -142 42 -153 44 -24 87 43 73 116 -6 33 -5 36 11
30 29 -11 61 19 75 68 7 25 18 46 26 46 7 0 36 -22 64 -50 l51 -50 -23 -30
c-21 -29 -22 -32 -6 -63 19 -35 25 -106 13 -149 -15 -57 69 -136 190 -179 81
-29 264 -24 337 8 54 25 70 58 46 96 -8 12 -18 38 -22 58 -15 85 -109 148
-200 136 -34 -5 -45 -1 -73 24 -19 16 -40 29 -48 29 -10 0 -15 10 -15 28 0 34
-25 59 -66 68 -21 4 -36 16 -49 41 -11 19 -41 55 -68 79 l-49 44 35 0 c19 0
40 6 46 14 10 11 19 12 42 4 16 -6 68 -8 114 -5 94 5 124 18 156 70 18 28 20
42 14 117 -5 74 -10 89 -33 113 -36 38 -95 71 -164 93 -32 10 -58 23 -58 30 0
7 27 88 61 180 33 91 62 179 65 193 5 23 11 27 41 28 26 1 44 10 66 32 27 26
32 39 35 94 3 50 0 72 -16 103 -42 81 -126 138 -267 180 -49 14 -119 35 -155
46 -74 22 -256 32 -335 18z m-90 -70 c3 -5 1 -10 -4 -10 -6 0 -29 -16 -51 -36
-30 -27 -40 -32 -40 -19 0 21 53 75 74 75 8 0 18 -4 21 -10z m233 -197 c59 -4
89 -10 83 -16 -23 -23 -221 -1 -221 25 0 6 10 8 23 4 12 -3 64 -9 115 -13z
m-338 -32 c0 -23 -58 -27 -86 -6 -17 13 -15 14 34 15 28 0 52 -4 52 -9z m735
-25 c19 -10 19 -11 -4 -14 -25 -4 -71 15 -71 30 0 10 46 0 75 -16z m-499 -2
c81 -14 112 -15 189 -5 92 11 93 11 165 -19 40 -17 77 -30 83 -30 5 0 28 -15
51 -33 23 -19 51 -39 64 -46 37 -20 25 -30 -31 -24 -59 6 -108 -12 -127 -46
-27 -52 -2 -141 55 -189 l32 -27 -26 -75 -26 -75 -43 3 c-60 4 -88 -16 -107
-80 -20 -68 -19 -90 4 -120 l19 -24 -57 4 c-73 5 -114 -14 -141 -68 -24 -47
-25 -81 -5 -120 17 -32 65 -70 89 -70 20 0 20 5 -4 -60 -11 -30 -20 -56 -20
-58 0 -2 -15 -2 -32 0 l-33 3 -3 -55 c-3 -75 -10 -100 -27 -100 -22 0 -27 16
-36 106 -9 85 -62 244 -81 244 -5 0 -7 -8 -4 -17 2 -10 7 -28 11 -40 6 -23
-11 -41 -26 -26 -5 5 -19 47 -30 93 -23 89 -79 237 -147 382 l-41 88 27 16
c87 52 95 171 16 233 -20 16 -41 21 -86 21 -54 0 -59 2 -68 26 -16 40 -12 51
22 65 17 7 45 27 63 44 20 21 55 39 101 53 38 12 76 26 84 32 19 12 12 13 126
-6z m-454 -51 c31 -6 36 -18 12 -27 -34 -13 -86 47 -67 77 5 8 11 2 17 -16 7
-19 19 -30 38 -34z m1128 -38 c-16 -19 -31 -19 -56 0 -18 13 -16 14 25 15 37
0 42 -2 31 -15z m-1050 -436 c8 -6 11 -12 5 -15 -48 -21 -60 -32 -63 -57 -5
-38 14 -57 54 -57 40 0 44 -13 9 -36 -20 -13 -30 -14 -59 -4 -19 6 -37 16 -39
23 -2 7 -8 9 -12 5 -5 -5 0 -17 10 -28 17 -19 16 -21 -29 -64 -25 -25 -46 -51
-46 -58 0 -7 -12 -30 -26 -51 -18 -28 -31 -37 -47 -35 -24 3 -23 0 -11 109 10
89 -35 147 -126 164 -31 6 -38 3 -58 -24 -22 -30 -64 -42 -76 -23 -7 12 28 85
52 106 22 19 40 22 127 16 28 -1 76 3 108 9 74 16 97 9 97 -30 0 -16 5 -29 10
-29 6 0 10 10 10 22 0 49 70 86 110 57z m109 -55 c6 -15 10 -28 8 -31 -8 -8
-131 -24 -144 -19 -8 4 -13 16 -11 28 2 18 13 25 53 35 74 17 81 16 94 -13z
m682 -14 c10 -6 26 -25 35 -42 15 -30 15 -31 -10 -57 l-26 -26 0 28 c0 16 -4
26 -10 22 -5 -3 -10 -16 -10 -28 0 -40 -28 -68 -63 -65 -27 3 -33 8 -35 32
-12 101 50 172 119 136z m159 -32 c67 -30 95 -51 111 -80 8 -15 7 -16 -18 -2
-16 7 -46 14 -67 14 -56 0 -113 29 -127 65 -7 17 -15 34 -17 38 -7 13 49 -3
118 -35z m-1282 -44 c28 -19 32 -91 6 -101 -25 -9 -44 24 -44 74 0 47 5 51 38
27z m1247 -43 c11 -8 21 -16 23 -17 1 0 -7 -23 -17 -50 -11 -27 -25 -68 -31
-91 -10 -39 -14 -43 -42 -43 -46 0 -68 25 -68 76 0 54 14 91 48 127 28 29 49
29 87 -2z m-1185 -34 c0 -5 -4 -5 -10 -2 -5 3 -10 14 -10 23 0 15 2 15 10 2 5
-8 10 -19 10 -23z m1289 22 c34 -12 61 -53 61 -94 0 -33 -22 -86 -43 -104 -22
-18 -21 -10 2 31 11 18 23 50 26 70 6 32 3 40 -19 61 -14 13 -40 29 -58 34
-18 6 -26 11 -17 12 9 1 30 -4 48 -10z m14 -46 c22 -20 21 -47 -2 -100 -23
-49 -59 -76 -98 -71 -26 3 -28 6 -26 46 1 23 13 68 27 98 24 53 28 56 53 49
16 -3 36 -14 46 -22z m-271 -45 l-4 -47 -31 16 c-25 13 -28 18 -14 21 9 2 17
8 17 14 0 11 31 51 35 46 1 -2 0 -24 -3 -50z m-66 -30 c53 -43 65 -60 62 -86
-2 -22 -9 -28 -34 -30 -18 -2 -48 4 -68 12 -30 12 -36 20 -36 45 0 20 8 36 26
50 31 25 30 25 50 9z m156 -86 c19 2 33 -2 35 -9 3 -7 -3 -13 -14 -13 -31 0
-93 20 -93 31 0 6 8 6 21 -1 11 -6 34 -10 51 -8z m-602 -148 c-15 -14 -36 -46
-46 -72 -21 -58 -26 -64 -47 -56 -38 14 2 144 60 195 l37 32 13 -37 c12 -36
11 -39 -17 -62z m435 66 c71 -49 145 -159 131 -196 -11 -28 -44 -14 -69 29
-25 42 -86 104 -122 125 -16 9 -17 13 -5 41 7 17 14 31 17 31 2 0 24 -13 48
-30z m-865 -369 c-24 -23 -45 -41 -47 -41 -1 0 -3 8 -3 18 0 24 28 62 54 72
40 15 38 -9 -4 -49z m1230 19 c0 -14 -88 -56 -97 -46 -12 12 45 56 73 56 13 0
24 -5 24 -10z"/>
<path d="M1310 1966 c0 -9 -6 -16 -14 -16 -8 0 -16 -7 -20 -15 -8 -22 -33 -18
-46 6 -16 29 -23 17 -9 -15 15 -32 41 -33 80 -5 29 21 37 43 19 54 -5 3 -10
-1 -10 -9z"/>
<path d="M1603 1910 c2 -28 6 -35 22 -35 12 0 21 8 24 20 3 16 1 17 -12 7 -13
-11 -17 -8 -26 15 l-10 28 2 -35z"/>
<path d="M990 1902 c0 -26 -11 -34 -28 -20 -12 10 -14 9 -11 -7 5 -24 38 -32
50 -13 12 18 11 58 -1 58 -5 0 -10 -8 -10 -18z"/>
<path d="M1435 1860 c-10 -11 -16 -22 -13 -25 3 -3 11 1 18 10 16 20 44 19 65
-1 9 -9 19 -13 23 -9 9 9 -36 45 -58 45 -9 0 -25 -9 -35 -20z"/>
<path d="M1088 1859 c-10 -5 -18 -17 -18 -26 0 -15 2 -15 18 0 10 10 25 17 32
17 7 0 22 -7 32 -17 16 -15 18 -15 18 0 0 30 -49 46 -82 26z"/>
<path d="M1096 1741 c-20 -37 -20 -64 -1 -100 20 -40 43 -46 72 -20 25 24 30
53 12 65 -8 4 -7 9 2 15 22 14 -10 63 -43 67 -21 3 -30 -3 -42 -27z"/>
<path d="M1442 1758 c-33 -42 -25 -119 15 -145 25 -17 26 -16 49 11 28 32 30
51 7 65 -17 10 -17 10 0 11 21 0 22 19 1 48 -17 24 -56 29 -72 10z"/>
<path d="M1286 1688 c-3 -7 -7 -30 -10 -51 -4 -33 -2 -39 19 -49 54 -24 119
27 94 74 -7 13 -17 26 -23 30 -18 12 -76 9 -80 -4z m84 -48 c0 -11 -4 -20 -9
-20 -12 0 -41 46 -34 54 11 10 43 -15 43 -34z"/>
<path d="M1105 1520 c-39 -44 14 -130 104 -167 120 -50 301 25 301 125 0 47
-22 58 -78 42 -81 -23 -127 -23 -201 -1 -85 26 -103 26 -126 1z m81 -8 c9 -5
9 -23 2 -65 l-10 -59 -29 28 c-35 33 -46 68 -29 89 13 16 47 20 66 7z m302
-34 c4 -31 -47 -96 -66 -84 -7 4 -12 27 -12 52 0 37 4 46 23 54 34 14 52 7 55
-22z m-209 7 c21 -6 23 -11 17 -44 -3 -20 -6 -48 -6 -62 0 -25 -2 -26 -34 -19
-55 12 -58 17 -51 74 9 62 12 68 33 62 10 -2 28 -7 41 -11z m111 -29 c0 -13 3
-37 6 -53 6 -28 4 -31 -35 -40 -22 -6 -43 -8 -46 -5 -7 7 -6 71 1 100 5 17 14
22 40 22 29 0 34 -3 34 -24z"/>
<path d="M1240 1268 c0 -13 49 -20 85 -14 55 11 41 22 -25 21 -33 0 -60 -3
-60 -7z"/>
<path d="M1157 1194 c-12 -34 9 -76 36 -72 17 2 23 11 25 36 2 18 -1 32 -7 32
-6 0 -11 -11 -11 -25 0 -38 -17 -30 -27 13 -8 32 -10 34 -16 16z"/>
<path d="M1250 959 c0 -29 18 -59 35 -59 19 0 38 38 29 58 -6 14 -8 13 -13 -6
-8 -31 -25 -29 -29 3 -4 30 -22 34 -22 4z"/>
</g>
</svg>
